<?xml version="1.0" ?><svg viewBox="0 0 64 64" xmlns="http://www.w3.org/2000/svg"><defs><style>.cls-1{fill:#a67c52;}.cls-2{fill:#fddfb1;}.cls-3{fill:#fb7e2d;}.cls-4{fill:#fc9857;}.cls-5{fill:#f2f2f2;}.cls-6{fill:#ffe441;}.cls-7{fill:#e6e6e6;}.cls-8{fill:#ffeb71;}.cls-9{fill:#b5b5b5;}.cls-10{fill:#ccc;}.cls-11{fill:none;stroke:#000;stroke-linejoin:round;stroke-width:2px;}</style></defs><title/><g data-name="Layer 27" id="Layer_27"><polyline class="cls-1" points="40 15 51 15 58 17 51 19 40 19"/><polygon class="cls-2" points="51 15 58 17 51 19 51 15"/><polyline class="cls-1" points="40 7 51 7 58 9 51 11 40 11"/><polygon class="cls-2" points="51 7 58 9 51 11 51 7"/><path class="cls-3" d="M52.35,48H57v2a12,12,0,0,1-2.31,7.08h0A39.46,39.46,0,0,0,57,62h0a39.71,39.71,0,0,0,5-19.3V35a5,5,0,0,0-5-5h0a5,5,0,0,0-5,5v7.7a40.67,40.67,0,0,0,.35,5.3Z"/><path class="cls-4" d="M59,35a5,5,0,0,0-3.5-4.75A5,5,0,0,0,52,35v7.7a40.67,40.67,0,0,0,.35,5.3H57v2a12,12,0,0,1-2.31,7.08h0c.25.64.53,1.27.81,1.9A39.76,39.76,0,0,0,59,42.7Z"/><polyline class="cls-5" points="40 47 40 2 2 2 2 54 34 54"/><path class="cls-6" d="M33,48H57a0,0,0,0,1,0,0v2A12,12,0,0,1,45,62h0A12,12,0,0,1,33,50V48A0,0,0,0,1,33,48Z"/><path class="cls-7" d="M37,48v2a8,8,0,0,0,8,8h0a8,8,0,0,0,8-8V48"/><rect class="cls-6" height="4" width="4" x="6" y="20"/><rect class="cls-8" height="4" width="2" x="6" y="20"/><rect class="cls-6" height="4" width="4" x="6" y="28"/><rect class="cls-8" height="4" width="2" x="6" y="28"/><rect class="cls-6" height="4" width="4" x="6" y="36"/><rect class="cls-8" height="4" width="2" x="6" y="36"/><rect class="cls-6" height="4" width="4" x="6" y="44"/><rect class="cls-8" height="4" width="2" x="6" y="44"/><rect class="cls-9" height="10" width="30" x="6" y="6"/><rect class="cls-10" height="10" width="27" x="6" y="6"/><rect class="cls-11" height="10" width="30" x="6" y="6"/><rect class="cls-11" height="4" width="4" x="6" y="20"/><line class="cls-11" x1="13" x2="37" y1="20" y2="20"/><line class="cls-11" x1="13" x2="37" y1="24" y2="24"/><rect class="cls-11" height="4" width="4" x="6" y="28"/><line class="cls-11" x1="13" x2="37" y1="28" y2="28"/><line class="cls-11" x1="13" x2="37" y1="32" y2="32"/><rect class="cls-11" height="4" width="4" x="6" y="36"/><line class="cls-11" x1="13" x2="37" y1="36" y2="36"/><line class="cls-11" x1="13" x2="37" y1="40" y2="40"/><rect class="cls-11" height="4" width="4" x="6" y="44"/><line class="cls-11" x1="13" x2="37" y1="44" y2="44"/><line class="cls-11" x1="13" x2="30" y1="48" y2="48"/><polyline class="cls-11" points="40 48 40 2 2 2 2 54 34 54"/><path class="cls-11" d="M33,48H57a0,0,0,0,1,0,0v2A12,12,0,0,1,45,62h0A12,12,0,0,1,33,50V48A0,0,0,0,1,33,48Z"/><path class="cls-11" d="M37,48v2a8,8,0,0,0,8,8h0a8,8,0,0,0,8-8V48"/><line class="cls-11" x1="45" x2="38" y1="48" y2="55"/><polyline class="cls-11" points="45 58 45 48 52 55"/><path class="cls-11" d="M54.69,57.07A39.46,39.46,0,0,0,57,62h0a39.71,39.71,0,0,0,5-19.3V35a5,5,0,0,0-5-5h0a5,5,0,0,0-5,5v7.7a40.67,40.67,0,0,0,.35,5.3"/><path class="cls-11" d="M54,22h0a10.25,10.25,0,0,1,3,7.24v0A10.25,10.25,0,0,1,60,22h0"/><line class="cls-11" x1="52" x2="57" y1="36" y2="36"/><line class="cls-11" x1="62" x2="57" y1="40" y2="40"/><line class="cls-11" x1="52" x2="57" y1="44" y2="44"/><polyline class="cls-11" points="40 7 51 7 58 9 51 11 40 11"/><polyline class="cls-11" points="40 15 51 15 58 17 51 19 40 19"/><line class="cls-11" x1="51" x2="51" y1="15" y2="19"/><line class="cls-11" x1="51" x2="51" y1="7" y2="11"/></g></svg>